<svg width="21" height="21" viewBox="0 0 21 21" fill="current" xmlns="http://www.w3.org/2000/svg">
<path d="M17.769 5.82691L16.9347 4.02661L15.1344 3.19234L16.9347 2.35804L17.769 0.557739L18.6033 2.35804L20.4036 3.19234L18.6033 4.02661L17.769 5.82691ZM6.51903 5.82691L5.68476 4.02661L3.88446 3.19234L5.68476 2.35804L6.51903 0.557739L7.35333 2.35804L9.15364 3.19234L7.35333 4.02661L6.51903 5.82691ZM17.769 17.0769L16.9347 15.2766L15.1344 14.4423L16.9347 13.608L17.769 11.8077L18.6033 13.608L20.4036 14.4423L18.6033 15.2766L17.769 17.0769ZM3.13828 20.0846L0.876785 17.8231C0.702418 17.6465 0.615234 17.4331 0.615234 17.183C0.615234 16.9328 0.702418 16.7205 0.876785 16.5462L11.5075 5.93466C11.6841 5.76031 11.8975 5.67314 12.1476 5.67314C12.3978 5.67314 12.6101 5.76031 12.7844 5.93466L15.0459 8.19616C15.2203 8.37276 15.3075 8.58615 15.3075 8.83631C15.3075 9.08646 15.2203 9.29872 15.0459 9.47309L4.41518 20.0846C4.2386 20.2589 4.02523 20.3461 3.77506 20.3461C3.52489 20.3461 3.31263 20.2589 3.13828 20.0846ZM3.79211 18.6L10.9613 11.4L9.56133 10L2.36133 17.1692L3.79211 18.6Z" fill="current"/>
</svg>
