<svg width="38" height="40" viewBox="0 0 38 40" fill="none" xmlns="http://www.w3.org/2000/svg">
<path d="M0.333496 14.1258V11.1867L10.9815 0.538635H13.9207L0.333496 14.1258ZM0.333496 4.62197V1.88474L1.67965 0.538635H4.41683L0.333496 4.62197ZM26.0495 7.49827C25.7803 7.27987 25.4968 7.06372 25.1992 6.84983C24.9016 6.63595 24.6092 6.44823 24.322 6.28669L30.07 0.538635H33.0091L26.0495 7.49827ZM1.67965 28.929L8.95335 21.6553C9.13582 21.9933 9.30559 22.2925 9.46266 22.5528C9.6197 22.813 9.79843 23.0538 9.99886 23.2752L6.6335 26.6405C5.90359 26.8529 5.11162 27.1558 4.25758 27.5492C3.4035 27.9426 2.54419 28.4025 1.67965 28.929ZM29.8143 13.2194V13.1925C29.7544 12.8724 29.6587 12.5119 29.5271 12.1111C29.3955 11.7102 29.2429 11.3587 29.0694 11.0566L37.6668 2.45914V5.36683L29.8143 13.2194ZM15.6258 5.43863L20.5393 0.538635H23.4784L19.0271 4.98988C18.9284 4.97195 18.8341 4.95849 18.7444 4.94951C18.6547 4.94053 18.5604 4.93603 18.4617 4.93603C18.0339 4.96594 17.5613 5.03026 17.0438 5.129C16.5262 5.2277 16.0536 5.33091 15.6258 5.43863ZM0.333496 23.6701V20.7309L8.1053 12.9591C7.96768 13.4467 7.85698 13.9269 7.77321 14.3995C7.68945 14.8722 7.64756 15.3224 7.64756 15.7502C7.64756 15.8489 7.65205 15.9431 7.66104 16.0328C7.67002 16.1226 7.6835 16.2124 7.70146 16.3021L0.333496 23.6701ZM34.0188 28.1079C33.7376 27.9105 33.4526 27.725 33.164 27.5515C32.8753 27.3779 32.5574 27.191 32.2104 26.9906L37.6668 21.5341V24.4733L34.0188 28.1079ZM29.3611 23.2348C29.4478 22.9686 29.5121 22.712 29.554 22.4653C29.5959 22.2185 29.6303 21.9664 29.6572 21.7091C29.6961 21.413 29.7073 21.1169 29.6909 20.8207C29.6744 20.5245 29.6557 20.2478 29.6348 19.9906L37.6668 11.9451V14.9425L29.3611 23.2348ZM19.0002 23.3335C17.0617 23.3335 15.4104 22.6514 14.0463 21.2873C12.6822 19.9232 12.0002 18.2719 12.0002 16.3335C12.0002 14.395 12.6822 12.7438 14.0463 11.3797C15.4104 10.0155 17.0617 9.33349 19.0002 9.33349C20.9386 9.33349 22.5899 10.0155 23.954 11.3797C25.3181 12.7438 26.0002 14.395 26.0002 16.3335C26.0002 18.2719 25.3181 19.9232 23.954 21.2873C22.5899 22.6514 20.9386 23.3335 19.0002 23.3335ZM19.0002 21.0002C20.2835 21.0002 21.3821 20.5432 22.296 19.6293C23.2099 18.7154 23.6668 17.6168 23.6668 16.3335C23.6668 15.0502 23.2099 13.9515 22.296 13.0377C21.3821 12.1238 20.2835 11.6668 19.0002 11.6668C17.7168 11.6668 16.6182 12.1238 15.7043 13.0377C14.7904 13.9515 14.3335 15.0502 14.3335 16.3335C14.3335 17.6168 14.7904 18.7154 15.7043 19.6293C16.6182 20.5432 17.7168 21.0002 19.0002 21.0002ZM2.66683 39.6668V36.3778C2.66683 35.2948 2.95999 34.3615 3.54632 33.5777C4.13265 32.794 4.87453 32.1703 5.77197 31.7065C7.66555 30.7852 9.73189 30.0269 11.971 29.4315C14.2101 28.8363 16.5532 28.5386 19.0002 28.5386C21.4472 28.5386 23.7902 28.8363 26.0293 29.4315C28.2684 30.0269 30.3348 30.7852 32.2284 31.7065C33.0959 32.1403 33.8303 32.764 34.4316 33.5777C35.0329 34.3914 35.3335 35.3248 35.3335 36.3778V39.6668H2.66683ZM5.01364 37.3335H32.9867C32.9688 36.3254 32.8326 35.5603 32.5784 35.0383C32.3241 34.5163 31.832 34.0878 31.1021 33.7528C29.6423 33.0528 27.9005 32.3976 25.8768 31.7873C23.853 31.1771 21.5608 30.872 19.0002 30.872C16.4395 30.872 14.1473 31.1771 12.1235 31.7873C10.0998 32.3976 8.35806 33.0528 6.89821 33.7528C6.19821 34.0878 5.7136 34.5185 5.44437 35.045C5.17514 35.5715 5.03157 36.3344 5.01364 37.3335Z" fill="#667085"/>
</svg>
