<svg width="11" height="13" viewBox="0 0 11 13" fill="none" xmlns="http://www.w3.org/2000/svg">
<path d="M2.93525 12.5006C2.41144 12.4972 1.91005 12.2876 1.53965 11.9172C1.16925 11.5468 0.959657 11.0454 0.956249 10.5216V2.47958C0.95252 2.21866 1.00243 1.95977 1.10289 1.71894C1.20335 1.47811 1.35221 1.26049 1.54025 1.07958C1.72084 0.892824 1.9378 0.74509 2.17774 0.645503C2.41768 0.545915 2.67549 0.49659 2.93525 0.500576H5.91525C6.86042 0.477805 7.78423 0.783505 8.52925 1.36558C8.88137 1.63432 9.16431 1.98318 9.35457 2.38319C9.54484 2.7832 9.63695 3.22283 9.62325 3.66558C9.65074 4.23331 9.49356 4.79467 9.17525 5.26558C8.88675 5.65989 8.50365 5.97524 8.06125 6.18258V6.32758C8.6297 6.52053 9.13155 6.87117 9.50825 7.33858C9.88321 7.85435 10.0709 8.48265 10.0402 9.11958C10.0623 9.60031 9.96536 10.079 9.75814 10.5134C9.55092 10.9477 9.23976 11.3242 8.85225 11.6096C8.03831 12.2069 7.04958 12.5181 6.04025 12.4946L2.93525 12.5006ZM3.49825 5.27158H5.62325C6.01357 5.28556 6.39542 5.15567 6.69625 4.90658C6.83153 4.79788 6.94029 4.65981 7.01427 4.50284C7.08825 4.34586 7.12552 4.1741 7.12325 4.00058C7.12486 3.82558 7.08736 3.65243 7.01348 3.49377C6.9396 3.33512 6.83122 3.19498 6.69625 3.08358C6.39812 2.82869 6.01524 2.69488 5.62325 2.70858H3.49825V5.27158ZM3.49825 10.2506H5.81125C6.24728 10.2726 6.67564 10.1298 7.01125 9.85058C7.15253 9.72067 7.26532 9.56285 7.34247 9.3871C7.41962 9.21136 7.45946 9.02151 7.45946 8.82958C7.45946 8.63764 7.41962 8.4478 7.34247 8.27205C7.26532 8.09631 7.15253 7.93849 7.01125 7.80858C6.6755 7.5296 6.24724 7.38684 5.81125 7.40858H3.49825V10.2506Z" fill="current"/>
</svg>
