<svg width="12" height="12" viewBox="0 0 12 12" fill="none" xmlns="http://www.w3.org/2000/svg">
<path d="M5.99974 6.87818L1.77216 11.1057C1.65679 11.2211 1.51176 11.2802 1.33708 11.2828C1.16241 11.2855 1.01472 11.2265 0.893995 11.1057C0.773259 10.985 0.712891 10.8387 0.712891 10.6667C0.712891 10.4947 0.773259 10.3483 0.893995 10.2276L5.12156 5.99999L0.893995 1.77241C0.778606 1.65703 0.719578 1.512 0.716911 1.33732C0.714231 1.16266 0.773259 1.01496 0.893995 0.894239C1.01472 0.773503 1.16108 0.713135 1.33308 0.713135C1.50508 0.713135 1.65144 0.773503 1.77216 0.894239L5.99974 5.1218L10.2273 0.894239C10.3427 0.778851 10.4877 0.719823 10.6624 0.717156C10.8371 0.714476 10.9848 0.773503 11.1055 0.894239C11.2262 1.01496 11.2866 1.16132 11.2866 1.33332C11.2866 1.50532 11.2262 1.65168 11.1055 1.77241L6.87793 5.99999L11.1055 10.2276C11.2209 10.3429 11.2799 10.488 11.2826 10.6627C11.2853 10.8373 11.2262 10.985 11.1055 11.1057C10.9848 11.2265 10.8384 11.2868 10.6664 11.2868C10.4944 11.2868 10.3481 11.2265 10.2273 11.1057L5.99974 6.87818Z" fill="#D0D5DD"/>
</svg>
