<svg width="23" height="18" viewBox="0 0 23 18" fill="current" xmlns="http://www.w3.org/2000/svg">
<path d="M3.8 14.75C3.3 14.75 2.875 14.575 2.525 14.225C2.175 13.875 2 13.45 2 12.95V2.575C2 2.075 2.175 1.64567 2.525 1.287C2.875 0.929 3.3 0.75 3.8 0.75H19.2C19.7 0.75 20.125 0.929 20.475 1.287C20.825 1.64567 21 2.075 21 2.575V12.95C21 13.45 20.825 13.875 20.475 14.225C20.125 14.575 19.7 14.75 19.2 14.75H3.8ZM3.8 13.25H19.2C19.2833 13.25 19.3543 13.221 19.413 13.163C19.471 13.1043 19.5 13.0333 19.5 12.95V2.575C19.5 2.475 19.471 2.39567 19.413 2.337C19.3543 2.279 19.2833 2.25 19.2 2.25H3.8C3.71667 2.25 3.646 2.279 3.588 2.337C3.52933 2.39567 3.5 2.475 3.5 2.575V12.95C3.5 13.0333 3.52933 13.1043 3.588 13.163C3.646 13.221 3.71667 13.25 3.8 13.25ZM1.625 17.25C1.425 17.25 1.25 17.1793 1.1 17.038C0.95 16.896 0.875 16.7167 0.875 16.5C0.875 16.2833 0.95 16.1043 1.1 15.963C1.25 15.821 1.425 15.75 1.625 15.75H21.375C21.575 15.75 21.75 15.821 21.9 15.963C22.05 16.1043 22.125 16.2833 22.125 16.5C22.125 16.7167 22.05 16.896 21.9 17.038C21.75 17.1793 21.575 17.25 21.375 17.25H1.625Z" fill="current"/>
</svg>
