<svg width="22" height="22" viewBox="0 0 22 22" fill="current" xmlns="http://www.w3.org/2000/svg">
<path d="M16.25 14.75V6.05C16.25 5.98333 16.2167 5.91667 16.15 5.85C16.0833 5.78333 16.0167 5.75 15.95 5.75H7.25V4.25H15.95C16.45 4.25 16.875 4.425 17.225 4.775C17.575 5.125 17.75 5.55 17.75 6.05V14.75H16.25ZM17 21.75C16.7833 21.75 16.604 21.6793 16.462 21.538C16.3207 21.396 16.25 21.2167 16.25 21V17.75H6.05C5.55 17.75 5.125 17.575 4.775 17.225C4.425 16.875 4.25 16.45 4.25 15.95V5.75H1C0.783333 5.75 0.604 5.679 0.462 5.537C0.320667 5.39567 0.25 5.21667 0.25 5C0.25 4.78333 0.320667 4.60433 0.462 4.463C0.604 4.321 0.783333 4.25 1 4.25H4.25V1C4.25 0.783333 4.321 0.604 4.463 0.462C4.60433 0.320667 4.78333 0.25 5 0.25C5.21667 0.25 5.39567 0.320667 5.537 0.462C5.679 0.604 5.75 0.783333 5.75 1V15.95C5.75 16.0167 5.78333 16.0833 5.85 16.15C5.91667 16.2167 5.98333 16.25 6.05 16.25H21C21.2167 16.25 21.396 16.3207 21.538 16.462C21.6793 16.604 21.75 16.7833 21.75 17C21.75 17.2167 21.6793 17.396 21.538 17.538C21.396 17.6793 21.2167 17.75 21 17.75H17.75V21C17.75 21.2167 17.6793 21.396 17.538 21.538C17.396 21.6793 17.2167 21.75 17 21.75Z" fill="current" />
<path d="M16.25 14.75V6.05C16.25 5.98333 16.2167 5.91667 16.15 5.85C16.0833 5.78333 16.0167 5.75 15.95 5.75H7.25V4.25H15.95C16.45 4.25 16.875 4.425 17.225 4.775C17.575 5.125 17.75 5.55 17.75 6.05V14.75H16.25ZM17 21.75C16.7833 21.75 16.604 21.6793 16.462 21.538C16.3207 21.396 16.25 21.2167 16.25 21V17.75H6.05C5.55 17.75 5.125 17.575 4.775 17.225C4.425 16.875 4.25 16.45 4.25 15.95V5.75H1C0.783333 5.75 0.604 5.679 0.462 5.537C0.320667 5.39567 0.25 5.21667 0.25 5C0.25 4.78333 0.320667 4.60433 0.462 4.463C0.604 4.321 0.783333 4.25 1 4.25H4.25V1C4.25 0.783333 4.321 0.604 4.463 0.462C4.60433 0.320667 4.78333 0.25 5 0.25C5.21667 0.25 5.39567 0.320667 5.537 0.462C5.679 0.604 5.75 0.783333 5.75 1V15.95C5.75 16.0167 5.78333 16.0833 5.85 16.15C5.91667 16.2167 5.98333 16.25 6.05 16.25H21C21.2167 16.25 21.396 16.3207 21.538 16.462C21.6793 16.604 21.75 16.7833 21.75 17C21.75 17.2167 21.6793 17.396 21.538 17.538C21.396 17.6793 21.2167 17.75 21 17.75H17.75V21C17.75 21.2167 17.6793 21.396 17.538 21.538C17.396 21.6793 17.2167 21.75 17 21.75Z" fill="current" fill-opacity="0.2"/>
</svg>
