<svg width="10" height="7" viewBox="0 0 10 7" fill="none" xmlns="http://www.w3.org/2000/svg">
<path d="M5.00016 6.45799C4.88883 6.45799 4.78116 6.43732 4.67716 6.39599C4.57316 6.35399 4.4725 6.28466 4.37516 6.18799L0.604163 2.41699C0.437496 2.25032 0.361162 2.04199 0.375162 1.79199C0.389162 1.54199 0.472496 1.34066 0.625162 1.18799C0.805829 1.00733 1.01416 0.920325 1.25016 0.926992C1.48616 0.934325 1.6875 1.02133 1.85416 1.18799L5.00016 4.35399L8.16716 1.18799C8.33383 1.02133 8.5315 0.937992 8.76016 0.937992C8.9895 0.937992 9.1945 1.02799 9.37516 1.20799C9.54183 1.37466 9.62516 1.57966 9.62516 1.82299C9.62516 2.06632 9.54183 2.27132 9.37516 2.43799L5.62516 6.18799C5.52783 6.28466 5.42716 6.35399 5.32316 6.39599C5.21916 6.43732 5.1115 6.45799 5.00016 6.45799Z" fill="#888888"/>
</svg>
