<svg width="20" height="20" viewBox="0 0 20 20" fill="current" xmlns="http://www.w3.org/2000/svg">
<path d="M1.5 20C1.08333 20 0.729333 19.854 0.438 19.562C0.146 19.2707 0 18.9167 0 18.5C0 18.0833 0.146 17.7293 0.438 17.438C0.729333 17.146 1.08333 17 1.5 17H18.5C18.9167 17 19.2707 17.146 19.562 17.438C19.854 17.7293 20 18.0833 20 18.5C20 18.9167 19.854 19.2707 19.562 19.562C19.2707 19.854 18.9167 20 18.5 20H1.5ZM5.075 13.75C4.75833 13.75 4.521 13.6417 4.363 13.425C4.20433 13.2083 4.18333 12.9417 4.3 12.625L8.825 1.05C8.90833 0.833333 9.06667 0.645667 9.3 0.487C9.53333 0.329 9.775 0.25 10.025 0.25C10.2417 0.25 10.4667 0.329 10.7 0.487C10.9333 0.645667 11.0917 0.833333 11.175 1.05L15.7 12.6C15.8167 12.9167 15.796 13.1877 15.638 13.413C15.4793 13.6377 15.225 13.75 14.875 13.75C14.725 13.75 14.5793 13.7 14.438 13.6C14.296 13.5 14.2 13.3833 14.15 13.25L12.975 10.125H7L5.825 13.25C5.775 13.3833 5.679 13.5 5.537 13.6C5.39567 13.7 5.24167 13.75 5.075 13.75ZM7.525 8.65H12.425L10.05 2.35H9.925L7.525 8.65Z" fill="current"/>
</svg>
