<svg width="18" height="14" viewBox="0 0 18 14" fill="current" xmlns="http://www.w3.org/2000/svg">
<path d="M1.0498 13.75C0.833138 13.75 0.654138 13.6794 0.512805 13.538C0.370805 13.396 0.299805 13.2167 0.299805 13V10C0.299805 8.68336 0.762472 7.56236 1.6878 6.63702C2.61247 5.71236 3.73314 5.25002 5.0498 5.25002H14.8498L11.4998 1.90002C11.3665 1.76669 11.2998 1.60002 11.2998 1.40002C11.2998 1.20002 11.3748 1.02502 11.5248 0.875024C11.6748 0.725024 11.8498 0.650024 12.0498 0.650024C12.2498 0.650024 12.4248 0.725024 12.5748 0.875024L17.0748 5.37502C17.1581 5.45836 17.2208 5.55402 17.2628 5.66202C17.3041 5.77069 17.3248 5.88336 17.3248 6.00002C17.3248 6.11669 17.3041 6.22902 17.2628 6.33702C17.2208 6.44569 17.1581 6.54169 17.0748 6.62502L12.5498 11.15C12.4165 11.2834 12.2498 11.35 12.0498 11.35C11.8498 11.35 11.6748 11.275 11.5248 11.125C11.3748 10.975 11.2998 10.8 11.2998 10.6C11.2998 10.4 11.3748 10.225 11.5248 10.075L14.8498 6.75002H5.0498C4.1498 6.75002 3.38314 7.06669 2.7498 7.70002C2.11647 8.33336 1.7998 9.10003 1.7998 10V13C1.7998 13.2167 1.72914 13.396 1.5878 13.538C1.4458 13.6794 1.26647 13.75 1.0498 13.75Z" fill="current"/>
</svg>
