<svg width="13" height="15" viewBox="0 0 13 15" fill="none" xmlns="http://www.w3.org/2000/svg">
<path d="M2.0002 14.3096C1.81481 14.3124 1.63075 14.2779 1.45896 14.2082C1.28717 14.1384 1.13116 14.0348 1.0002 13.9036C0.865699 13.7768 0.759137 13.6234 0.687332 13.4531C0.615527 13.2828 0.58006 13.0994 0.583199 12.9146C0.58504 12.5393 0.734921 12.18 1.00026 11.9146C1.2656 11.6493 1.62495 11.4994 2.0002 11.4976H3.4002L6.5662 3.49758H5.2292C5.04441 3.50072 4.86099 3.46526 4.69069 3.39345C4.52039 3.32165 4.36696 3.21509 4.2402 3.08058C4.10858 2.94985 4.0047 2.7939 3.93477 2.62207C3.86483 2.45024 3.83029 2.26607 3.8332 2.08058C3.83227 1.89671 3.86788 1.71448 3.93796 1.54448C4.00805 1.37448 4.11122 1.2201 4.24147 1.09031C4.37173 0.960524 4.52648 0.857909 4.69672 0.78843C4.86697 0.718951 5.04933 0.683992 5.2332 0.685584H11.0002C11.1856 0.682771 11.3696 0.717263 11.5414 0.78701C11.7132 0.856757 11.8692 0.960334 12.0002 1.09158C12.1347 1.21834 12.2413 1.37178 12.3131 1.54208C12.3849 1.71238 12.4203 1.89579 12.4172 2.08058C12.4154 2.45583 12.2655 2.81518 12.0001 3.08052C11.7348 3.34586 11.3754 3.49574 11.0002 3.49758H9.6002L6.4382 11.4976H7.7712C7.95599 11.4944 8.1394 11.5299 8.3097 11.6017C8.48 11.6735 8.63344 11.7801 8.7602 11.9146C8.89182 12.0453 8.9957 12.2013 9.06563 12.3731C9.13556 12.5449 9.17011 12.7291 9.1672 12.9146C9.1688 13.0989 9.13368 13.2816 9.06389 13.4522C8.9941 13.6228 8.89104 13.7778 8.76072 13.9081C8.63039 14.0384 8.47542 14.1415 8.30484 14.2113C8.13427 14.2811 7.9515 14.3162 7.7672 14.3146L2.0002 14.3096Z" fill="#888888"/>
</svg>
