<svg width="17" height="16" viewBox="0 0 17 16" fill="current" xmlns="http://www.w3.org/2000/svg">
<path d="M1.5622 15.917C1.43382 15.9179 1.30662 15.8924 1.18847 15.8421C1.07031 15.7919 0.963699 15.718 0.875198 15.625C0.782191 15.5365 0.708299 15.4299 0.658079 15.3118C0.607858 15.1936 0.582374 15.0664 0.583198 14.938C0.580839 14.8062 0.605533 14.6752 0.655755 14.5533C0.705977 14.4313 0.780662 14.321 0.875198 14.229C0.963858 14.1363 1.07053 14.0627 1.18866 14.0126C1.30679 13.9626 1.43391 13.9372 1.5622 13.938H15.4382C15.5665 13.9372 15.6936 13.9626 15.8117 14.0126C15.9299 14.0627 16.0365 14.1363 16.1252 14.229C16.2197 14.321 16.2944 14.4313 16.3446 14.5533C16.3949 14.6752 16.4196 14.8062 16.4172 14.938C16.4118 15.196 16.307 15.4419 16.1245 15.6244C15.9421 15.8068 15.6962 15.9117 15.4382 15.917H1.5622ZM1.5622 12.458C1.43391 12.4589 1.30679 12.4335 1.18866 12.3834C1.07053 12.3334 0.963858 12.2598 0.875198 12.167C0.780662 12.0751 0.705977 11.9647 0.655755 11.8428C0.605533 11.7208 0.580839 11.5899 0.583198 11.458C0.582256 11.3296 0.607686 11.2024 0.657913 11.0842C0.708141 10.9661 0.782096 10.8595 0.875198 10.771C0.963699 10.678 1.07031 10.6041 1.18847 10.5539C1.30662 10.5037 1.43382 10.4782 1.5622 10.479H15.4382C15.6962 10.4844 15.9421 10.5893 16.1245 10.7717C16.307 10.9542 16.4118 11.2001 16.4172 11.458C16.4196 11.5899 16.3949 11.7208 16.3446 11.8428C16.2944 11.9647 16.2197 12.0751 16.1252 12.167C16.0365 12.2598 15.9299 12.3334 15.8117 12.3834C15.6936 12.4335 15.5665 12.4589 15.4382 12.458H1.5622ZM1.5622 9.00003C1.43309 9.00074 1.30526 8.97441 1.18694 8.92274C1.06862 8.87107 0.962432 8.79521 0.875198 8.70003C0.78207 8.60878 0.708086 8.49987 0.657578 8.37967C0.607071 8.25947 0.581055 8.13041 0.581055 8.00003C0.581055 7.86965 0.607071 7.74058 0.657578 7.62038C0.708086 7.50019 0.78207 7.39127 0.875198 7.30003C0.962432 7.20485 1.06862 7.12898 1.18694 7.07731C1.30526 7.02564 1.43309 6.99932 1.5622 7.00003H15.4382C15.5673 6.99932 15.6951 7.02564 15.8135 7.07731C15.9318 7.12898 16.038 7.20485 16.1252 7.30003C16.2183 7.39127 16.2923 7.50019 16.3428 7.62038C16.3933 7.74058 16.4193 7.86965 16.4193 8.00003C16.4193 8.13041 16.3933 8.25947 16.3428 8.37967C16.2923 8.49987 16.2183 8.60878 16.1252 8.70003C16.038 8.79521 15.9318 8.87107 15.8135 8.92274C15.6951 8.97441 15.5673 9.00074 15.4382 9.00003H1.5622ZM1.5622 5.52103C1.43382 5.52185 1.30662 5.49637 1.18847 5.44615C1.07031 5.39593 0.963699 5.32203 0.875198 5.22903C0.782096 5.1406 0.708141 5.034 0.657913 4.91583C0.607686 4.79765 0.582256 4.67043 0.583198 4.54203C0.580839 4.41017 0.605533 4.27922 0.655755 4.15728C0.705977 4.03534 0.780662 3.92498 0.875198 3.83303C0.963858 3.7403 1.07053 3.66665 1.18866 3.61661C1.30679 3.56657 1.43391 3.54119 1.5622 3.54203H15.4382C15.5665 3.54119 15.6936 3.56657 15.8117 3.61661C15.9299 3.66665 16.0365 3.7403 16.1252 3.83303C16.2197 3.92498 16.2944 4.03534 16.3446 4.15728C16.3949 4.27922 16.4196 4.41017 16.4172 4.54203C16.4118 4.79999 16.307 5.0459 16.1245 5.22835C15.9421 5.4108 15.6962 5.51566 15.4382 5.52103H1.5622ZM1.5622 2.06203C1.43391 2.06286 1.30679 2.03748 1.18866 1.98744C1.07053 1.9374 0.963858 1.86376 0.875198 1.77103C0.780662 1.67907 0.705977 1.56872 0.655755 1.44677C0.605533 1.32483 0.580839 1.19389 0.583198 1.06203C0.582374 0.933645 0.607858 0.806454 0.658079 0.688299C0.708299 0.570144 0.782191 0.463528 0.875198 0.375027C0.963699 0.28202 1.07031 0.208129 1.18847 0.157908C1.30662 0.107688 1.43382 0.0822037 1.5622 0.0830272H15.4382C15.5666 0.0822037 15.6938 0.107688 15.8119 0.157908C15.9301 0.208129 16.0367 0.28202 16.1252 0.375027C16.2182 0.463528 16.2921 0.570144 16.3423 0.688299C16.3925 0.806454 16.418 0.933645 16.4172 1.06203C16.4196 1.19389 16.3949 1.32483 16.3446 1.44677C16.2944 1.56872 16.2197 1.67907 16.1252 1.77103C16.0365 1.86376 15.9299 1.9374 15.8117 1.98744C15.6936 2.03748 15.5665 2.06286 15.4382 2.06203H1.5622Z" fill="current"/>
</svg>
