<svg width="30" height="25" viewBox="0 0 30 25" fill="none" xmlns="http://www.w3.org/2000/svg">
<path d="M2.84211 24.4342C2.05263 24.4342 1.38158 24.1579 0.828947 23.6053C0.276316 23.0526 0 22.3816 0 21.5921V3.59211C0 2.80263 0.276316 2.13158 0.828947 1.57895C1.38158 1.02632 2.05263 0.75 2.84211 0.75H27.1579C27.9474 0.75 28.6184 1.02632 29.1711 1.57895C29.7237 2.13158 30 2.80263 30 3.59211V21.5921C30 22.3816 29.7237 23.0526 29.1711 23.6053C28.6184 24.1579 27.9474 24.4342 27.1579 24.4342H2.84211ZM2.84211 22.0658H27.1579C27.2632 22.0658 27.3684 22.0132 27.4737 21.9079C27.5789 21.8026 27.6316 21.6974 27.6316 21.5921V3.59211C27.6316 3.48684 27.5789 3.38158 27.4737 3.27632C27.3684 3.17105 27.2632 3.11842 27.1579 3.11842H2.84211C2.73684 3.11842 2.63158 3.17105 2.52632 3.27632C2.42105 3.38158 2.36842 3.48684 2.36842 3.59211V21.5921C2.36842 21.6974 2.42105 21.8026 2.52632 21.9079C2.63158 22.0132 2.73684 22.0658 2.84211 22.0658ZM6.71053 18.9079H23.4079L18.2368 12L13.7763 17.7632L10.6184 13.6974L6.71053 18.9079Z" fill="#667085"/>
</svg>
