<svg width="18" height="14" viewBox="0 0 18 14" fill="current" xmlns="http://www.w3.org/2000/svg">
<path d="M16.9498 13.75C16.7331 13.75 16.5541 13.6794 16.4128 13.538C16.2708 13.396 16.1998 13.2167 16.1998 13V10C16.1998 9.10003 15.8831 8.33336 15.2498 7.70002C14.6165 7.06669 13.8498 6.75002 12.9498 6.75002H3.1498L6.4998 10.1C6.63314 10.2334 6.6998 10.4 6.6998 10.6C6.6998 10.8 6.6248 10.975 6.4748 11.125C6.3248 11.275 6.1498 11.35 5.9498 11.35C5.7498 11.35 5.5748 11.275 5.4248 11.125L0.924805 6.62502C0.841471 6.54169 0.779138 6.44569 0.737805 6.33702C0.695805 6.22902 0.674805 6.11669 0.674805 6.00002C0.674805 5.88336 0.695805 5.77069 0.737805 5.66202C0.779138 5.55402 0.841471 5.45836 0.924805 5.37502L5.4498 0.850024C5.58314 0.716691 5.7498 0.650024 5.9498 0.650024C6.1498 0.650024 6.3248 0.725024 6.4748 0.875024C6.6248 1.02502 6.6998 1.20002 6.6998 1.40002C6.6998 1.60002 6.6248 1.77502 6.4748 1.92502L3.1498 5.25002H12.9498C14.2665 5.25002 15.3871 5.71236 16.3118 6.63702C17.2371 7.56236 17.6998 8.68336 17.6998 10V13C17.6998 13.2167 17.6291 13.396 17.4878 13.538C17.3458 13.6794 17.1665 13.75 16.9498 13.75Z" fill="current"/>
</svg>
