<svg width="13" height="22" viewBox="0 0 13 22" fill="current" xmlns="http://www.w3.org/2000/svg">
<path d="M1.8 21.5C1.3 21.5 0.875 21.325 0.525 20.975C0.175 20.625 0 20.2 0 19.7V2.3C0 1.8 0.175 1.375 0.525 1.025C0.875 0.675 1.3 0.5 1.8 0.5H11.2C11.7 0.5 12.125 0.675 12.475 1.025C12.825 1.375 13 1.8 13 2.3V19.7C13 20.2 12.825 20.625 12.475 20.975C12.125 21.325 11.7 21.5 11.2 21.5H1.8ZM1.5 18.75V19.7C1.5 19.7667 1.53333 19.8333 1.6 19.9C1.66667 19.9667 1.73333 20 1.8 20H11.2C11.2667 20 11.3333 19.9667 11.4 19.9C11.4667 19.8333 11.5 19.7667 11.5 19.7V18.75H1.5ZM1.5 17.25H11.5V4.75H1.5V17.25ZM1.5 3.25H11.5V2.3C11.5 2.23333 11.4667 2.16667 11.4 2.1C11.3333 2.03333 11.2667 2 11.2 2H1.8C1.73333 2 1.66667 2.03333 1.6 2.1C1.53333 2.16667 1.5 2.23333 1.5 2.3V3.25ZM1.5 18.75V20V19.7V18.75Z" fill="current"/>
</svg>
