<svg width="17" height="15" viewBox="0 0 17 15" fill="current" xmlns="http://www.w3.org/2000/svg">
<path d="M1.04215 9.25003C0.927334 9.25085 0.813562 9.22822 0.707808 9.18351C0.602055 9.1388 0.506548 9.07296 0.427147 8.99003C0.344834 8.91014 0.279394 8.81455 0.234706 8.70891C0.190018 8.60327 0.166992 8.48973 0.166992 8.37503C0.166992 8.26032 0.190018 8.14679 0.234706 8.04114C0.279394 7.9355 0.344834 7.83991 0.427147 7.76003C0.506548 7.67709 0.602055 7.61125 0.707808 7.56654C0.813562 7.52183 0.927334 7.4992 1.04215 7.50003H15.9581C16.1902 7.50003 16.4128 7.59221 16.5769 7.75631C16.741 7.9204 16.8331 8.14296 16.8331 8.37503C16.8331 8.60709 16.741 8.82965 16.5769 8.99374C16.4128 9.15784 16.1902 9.25003 15.9581 9.25003H1.04215ZM7.08315 5.75003V3.50003H3.95815C3.58291 3.49844 3.22352 3.34861 2.95828 3.08319C2.69304 2.81776 2.54346 2.45826 2.54215 2.08303C2.539 1.89832 2.57437 1.71499 2.64599 1.54472C2.71762 1.37444 2.82393 1.22095 2.95815 1.09403C3.08911 0.962776 3.24512 0.859198 3.41691 0.789451C3.5887 0.719704 3.77276 0.685212 3.95815 0.688025H13.0421C13.2275 0.685212 13.4116 0.719704 13.5834 0.789451C13.7552 0.859198 13.9112 0.962776 14.0421 1.09403C14.1764 1.22095 14.2827 1.37444 14.3543 1.54472C14.4259 1.71499 14.4613 1.89832 14.4581 2.08303C14.4568 2.45826 14.3073 2.81776 14.042 3.08319C13.7768 3.34861 13.4174 3.49844 13.0421 3.50003H9.91715V5.75003H7.08315ZM8.50015 14.312C8.31476 14.3148 8.1307 14.2803 7.95891 14.2106C7.78712 14.1409 7.6311 14.0373 7.50015 13.906C7.36565 13.7793 7.25908 13.6258 7.18728 13.4555C7.11547 13.2852 7.08001 13.1018 7.08315 12.917V11H9.91715V12.917C9.92029 13.1018 9.88482 13.2852 9.81301 13.4555C9.74121 13.6258 9.63465 13.7793 9.50015 13.906C9.36919 14.0373 9.21318 14.1409 9.04139 14.2106C8.8696 14.2803 8.68553 14.3148 8.50015 14.312Z" fill="current"/>
</svg>
