<svg width="13" height="15" viewBox="0 0 13 15" fill="none" xmlns="http://www.w3.org/2000/svg">
<path d="M1.54213 14.9366C1.41185 14.9372 1.28277 14.9116 1.16254 14.8615C1.0423 14.8113 0.933346 14.7376 0.842126 14.6446C0.746869 14.5572 0.670963 14.4508 0.619295 14.3323C0.567626 14.2138 0.541339 14.0858 0.542126 13.9566C0.539902 13.8241 0.565449 13.6927 0.61712 13.5708C0.668791 13.4488 0.74544 13.3391 0.842126 13.2486C0.933346 13.1555 1.0423 13.0818 1.16254 13.0316C1.28277 12.9815 1.41185 12.9559 1.54213 12.9566H11.4581C11.5884 12.9559 11.7175 12.9815 11.8377 13.0316C11.958 13.0818 12.0669 13.1555 12.1581 13.2486C12.2548 13.3391 12.3315 13.4488 12.3831 13.5708C12.4348 13.6927 12.4604 13.8241 12.4581 13.9566C12.4589 14.0858 12.4326 14.2138 12.381 14.3323C12.3293 14.4508 12.2534 14.5572 12.1581 14.6446C12.0669 14.7376 11.958 14.8113 11.8377 14.8615C11.7175 14.9116 11.5884 14.9372 11.4581 14.9366H1.54213ZM6.50013 11.2906C5.89143 11.2953 5.28785 11.179 4.72456 10.9483C4.16126 10.7175 3.6495 10.377 3.21907 9.94661C2.78864 9.51618 2.44815 9.00442 2.21742 8.44112C1.98669 7.87782 1.87033 7.27425 1.87513 6.66555V1.18655C1.87196 1.03738 1.89994 0.88919 1.95728 0.751442C2.01461 0.613694 2.10005 0.489419 2.20813 0.386553C2.41969 0.17938 2.70402 0.0633545 3.00013 0.0633545C3.29624 0.0633545 3.58056 0.17938 3.79213 0.386553C3.89912 0.486451 3.98402 0.607636 4.04137 0.742316C4.09873 0.876995 4.12725 1.02219 4.12513 1.16855V6.66855C4.11871 6.98365 4.17629 7.29677 4.29437 7.58897C4.41246 7.88117 4.58859 8.14638 4.81213 8.36855C5.26056 8.81482 5.86747 9.06535 6.50013 9.06535C7.13278 9.06535 7.73969 8.81482 8.18813 8.36855C8.41166 8.14638 8.58779 7.88117 8.70588 7.58897C8.82396 7.29677 8.88154 6.98365 8.87513 6.66855V1.18655C8.87196 1.03738 8.89994 0.88919 8.95728 0.751442C9.01461 0.613694 9.10005 0.489419 9.20813 0.386553C9.41969 0.17938 9.70402 0.0633545 10.0001 0.0633545C10.2962 0.0633545 10.5806 0.17938 10.7921 0.386553C10.8991 0.486451 10.984 0.607636 11.0414 0.742316C11.0987 0.876995 11.1273 1.02219 11.1251 1.16855V6.66855C11.1295 7.277 11.0129 7.88025 10.782 8.4432C10.5511 9.00614 10.2105 9.51755 9.78011 9.94766C9.34972 10.3778 8.83809 10.718 8.27499 10.9485C7.71189 11.1791 7.10857 11.2953 6.50013 11.2906Z" fill="#888888"/>
</svg>
